<?xml version="1.0" encoding="UTF-8" standalone="no"?>
<!-- Created with Inkscape (http://www.inkscape.org/) -->

<svg
   width="364.29044"
   height="342.64655"
   viewBox="0 0 364.29044 342.64655"
   version="1.1"
   id="svg5"
   inkscape:version="1.2 (dc2aedaf03, 2022-05-15)"
   sodipodi:docname="cap-gd-logo.svg"
   xml:space="preserve"
   xmlns:inkscape="http://www.inkscape.org/namespaces/inkscape"
   xmlns:sodipodi="http://sodipodi.sourceforge.net/DTD/sodipodi-0.dtd"
   xmlns="http://www.w3.org/2000/svg"
   xmlns:svg="http://www.w3.org/2000/svg"><sodipodi:namedview
     id="namedview7"
     pagecolor="#000000"
     bordercolor="#ffffff"
     borderopacity="1"
     inkscape:showpageshadow="2"
     inkscape:pageopacity="0"
     inkscape:pagecheckerboard="false"
     inkscape:deskcolor="#000000"
     inkscape:document-units="px"
     showgrid="false"
     inkscape:zoom="0.921875"
     inkscape:cx="-4.3389831"
     inkscape:cy="129.08475"
     inkscape:window-width="1920"
     inkscape:window-height="1003"
     inkscape:window-x="0"
     inkscape:window-y="0"
     inkscape:window-maximized="1"
     inkscape:current-layer="layer1"
     showborder="false"><inkscape:grid
       type="xygrid"
       id="grid132"
       spacingx="16"
       spacingy="16"
       empspacing="8"
       empcolor="#00e5e5"
       empopacity="0.54901961"
       color="#0099e5"
       opacity="0.2"
       originx="130.94844"
       originy="-129.43723" /></sodipodi:namedview><defs
     id="defs2"><clipPath
       clipPathUnits="userSpaceOnUse"
       id="clipPath3536"><path
         d="M -112.11325,220.35268 H 632.2282 v -526.30225 h -744.34145 z"
         id="path3538"
         inkscape:connector-curvature="0"
         style="stroke-width:0.999999" /></clipPath></defs><g
     inkscape:label="Layer 1"
     inkscape:groupmode="layer"
     id="layer1"
     transform="translate(130.94844,-129.43723)"><g
       id="g3603"><g
         id="g3589"><g
           id="g3569"
           style="fill:#000000;stroke:#ffffff;stroke-width:24;stroke-dasharray:none;stroke-opacity:1"><path
             d="m 198.76011,359.06005 c 0,0 -0.49012,-3.00709 -0.77666,-2.97995 l -54.56503,5.26468 c -4.34174,0.41924 -7.71379,3.88177 -8.01842,8.23256 l -1.49902,21.48549 -42.213932,3.01162 -2.871368,-19.47222 c -0.639422,-4.33118 -4.421665,-7.59615 -8.799596,-7.59615 H 22.425857 c -4.376423,0 -8.158666,3.26497 -8.798088,7.59615 l -2.872876,19.47222 -42.213932,-3.01162 -1.499022,-21.48549 c -0.304631,-4.35229 -3.676678,-7.81483 -8.018415,-8.23407 l -54.592182,-5.26317 c -0.282009,-0.0271 -0.488615,2.98297 -0.770624,2.98297 l -0.0739,11.80819 46.234449,7.45591 1.514104,21.67702 c 0.306138,4.38848 3.84709,7.93698 8.238594,8.25216 l 58.137656,4.1472 c 0.220179,0.0151 0.437341,0.0241 0.654503,0.0241 4.368883,0 8.145093,-3.26649 8.784515,-7.59767 l 2.954312,-20.03623 h 42.233537 l 2.954312,20.03623 c 0.637914,4.32968 4.418649,7.59616 8.793563,7.59616 0.214146,0 0.428293,-0.008 0.637915,-0.0226 l 58.145202,-4.1472 c 4.38999,-0.31518 7.93244,-3.86368 8.23858,-8.25216 l 1.5126,-21.67702 46.21484,-7.48908 z"
             style="fill:#000000;fill-opacity:1;fill-rule:nonzero;stroke:#ffffff;stroke-width:24;stroke-dasharray:none;stroke-opacity:1"
             id="path3557"
             inkscape:connector-curvature="0" /><path
             d="m 0,0 v -47.514 -6.035 -5.492 c 0.108,-0.001 0.216,-0.005 0.323,-0.015 l 36.196,-3.49 c 1.896,-0.183 3.382,-1.709 3.514,-3.609 l 1.116,-15.978 31.574,-2.253 2.175,14.747 c 0.282,1.912 1.922,3.329 3.856,3.329 h 38.188 c 1.933,0 3.573,-1.417 3.855,-3.329 l 2.175,-14.747 31.575,2.253 1.115,15.978 c 0.133,1.9 1.618,3.425 3.514,3.609 l 36.182,3.49 c 0.107,0.01 0.214,0.014 0.322,0.015 v 4.711 l 0.015,0.005 V 0 c 5.09692,6.4164715 9.92323,13.494208 13.621,19.449 -5.651,9.62 -12.575,18.217 -19.976,26.182 -6.864,-3.455 -13.531,-7.369 -19.828,-11.534 -3.151,3.132 -6.7,5.694 -10.186,8.372 -3.425,2.751 -7.285,4.768 -10.946,7.118 1.09,8.117 1.629,16.108 1.846,24.448 -9.446,4.754 -19.519,7.906 -29.708,10.17 -4.068,-6.837 -7.788,-14.241 -11.028,-21.479 -3.842,0.642 -7.702,0.88 -11.567,0.926 v 0.006 c -0.027,0 -0.052,-0.006 -0.075,-0.006 -0.024,0 -0.049,0.006 -0.073,0.006 V 63.652 C 93.903,63.606 90.046,63.368 86.203,62.726 82.965,69.964 79.247,77.368 75.173,84.205 64.989,81.941 54.915,78.789 45.47,74.035 45.686,65.695 46.225,57.704 47.318,49.587 43.65,47.237 39.795,45.22 36.369,42.469 32.888,39.791 29.333,37.229 26.181,34.097 19.884,38.262 13.219,42.176 6.353,45.631 -1.048,37.666 -7.968,29.069 -13.621,19.449 -9.1783421,12.475308 -4.4130298,5.4661124 0,0 Z"
             style="fill:#000000;fill-opacity:1;fill-rule:nonzero;stroke:#ffffff;stroke-width:15.9144;stroke-dasharray:none;stroke-opacity:1"
             id="path3559"
             inkscape:connector-curvature="0"
             sodipodi:nodetypes="cccccccccsssscccccccccccccccccccsccccccccccc"
             transform="matrix(1.5080713,0,0,-1.5080713,-96.339901,270.02201)"
             clip-path="url(#clipPath3536)" /><path
             d="m 149.78971,375.56995 -1.69055,24.22415 c -0.20359,2.91963 -2.52602,5.24356 -5.44564,5.45319 l -58.143692,4.1487 c -0.141759,0.0106 -0.283518,0.0151 -0.423768,0.0151 -2.889465,0 -5.382307,-2.12035 -5.809091,-5.02188 L 74.942623,381.77717 H 27.500208 l -3.334345,22.61202 c -0.447898,3.04329 -3.168458,5.2315 -6.232859,5.0068 l -58.143689,-4.1487 c -2.919626,-0.20963 -5.242056,-2.53356 -5.445645,-5.45319 l -1.690548,-24.22415 -49.083197,-4.73233 c 0.02262,5.27524 0.09048,11.05416 0.09048,12.20482 0,51.83845 65.759449,76.7548 147.46072,77.04133 h 0.09953 0.101041 C 133.02297,459.79724 198.7598,434.88089 198.7598,383.04244 c 0,-1.17177 0.0709,-6.92657 0.095,-12.20482 z"
             style="fill:#000000;fill-opacity:1;fill-rule:nonzero;stroke:#ffffff;stroke-width:24;stroke-dasharray:none;stroke-opacity:1"
             id="path3561"
             inkscape:connector-curvature="0" /><path
             d="m 6.7372299,306.1655 c 0,18.17528 -14.7263162,32.89858 -32.8955589,32.89858 -18.160195,0 -32.891035,-14.7233 -32.891035,-32.89858 0,-18.16321 14.73084,-32.87897 32.891035,-32.87897 18.1692427,0 32.8955589,14.71576 32.8955589,32.87897"
             style="fill:#000000;fill-opacity:1;fill-rule:nonzero;stroke:#ffffff;stroke-width:24;stroke-dasharray:none;stroke-opacity:1"
             id="path3563"
             inkscape:connector-curvature="0" /><path
             d="m 51.218695,342.05699 c -5.848301,0 -10.588169,-4.31007 -10.588169,-9.623 v -30.28358 c 0,-5.30841 4.739868,-9.62301 10.588169,-9.62301 5.848301,0 10.598725,4.3146 10.598725,9.62301 v 30.28358 c 0,5.31293 -4.750424,9.623 -10.598725,9.623"
             style="fill:#000000;fill-opacity:1;fill-rule:nonzero;stroke:#ffffff;stroke-width:24;stroke-dasharray:none;stroke-opacity:1"
             id="path3565"
             inkscape:connector-curvature="0" /><path
             d="m 95.705601,306.1655 c 0,18.17528 14.726319,32.89858 32.898579,32.89858 18.15868,0 32.88802,-14.7233 32.88802,-32.89858 0,-18.16321 -14.72934,-32.87897 -32.88802,-32.87897 -18.17226,0 -32.898579,14.71576 -32.898579,32.87897"
             style="fill:#000000;fill-opacity:1;fill-rule:nonzero;stroke:#ffffff;stroke-width:24;stroke-dasharray:none;stroke-opacity:1"
             id="path3567"
             inkscape:connector-curvature="0" /></g><path
           d="m 198.76011,359.06005 c 0,0 -0.49012,-3.00709 -0.77666,-2.97995 l -54.56503,5.26468 c -4.34174,0.41924 -7.71379,3.88177 -8.01842,8.23256 l -1.49902,21.48549 -42.213932,3.01162 -2.871368,-19.47222 c -0.639422,-4.33118 -4.421665,-7.59615 -8.799596,-7.59615 H 22.425857 c -4.376423,0 -8.158666,3.26497 -8.798088,7.59615 l -2.872876,19.47222 -42.213932,-3.01162 -1.499022,-21.48549 c -0.304631,-4.35229 -3.676678,-7.81483 -8.018415,-8.23407 l -54.592182,-5.26317 c -0.282009,-0.0271 -0.488615,2.98297 -0.770624,2.98297 l -0.0739,11.80819 46.234449,7.45591 1.514104,21.67702 c 0.306138,4.38848 3.84709,7.93698 8.238594,8.25216 l 58.137656,4.1472 c 0.220179,0.0151 0.437341,0.0241 0.654503,0.0241 4.368883,0 8.145093,-3.26649 8.784515,-7.59767 l 2.954312,-20.03623 h 42.233537 l 2.954312,20.03623 c 0.637914,4.32968 4.418649,7.59616 8.793563,7.59616 0.214146,0 0.428293,-0.008 0.637915,-0.0226 l 58.145202,-4.1472 c 4.38999,-0.31518 7.93244,-3.86368 8.23858,-8.25216 l 1.5126,-21.67702 46.21484,-7.48908 z"
           style="fill:#ffffff;fill-opacity:1;fill-rule:nonzero;stroke:none;stroke-width:1.33333"
           id="path80"
           inkscape:connector-curvature="0" /></g><g
         id="g3579"><path
           d="m 0,0 v -47.514 -6.035 -5.492 c 0.108,-0.001 0.216,-0.005 0.323,-0.015 l 36.196,-3.49 c 1.896,-0.183 3.382,-1.709 3.514,-3.609 l 1.116,-15.978 31.574,-2.253 2.175,14.747 c 0.282,1.912 1.922,3.329 3.856,3.329 h 38.188 c 1.933,0 3.573,-1.417 3.855,-3.329 l 2.175,-14.747 31.575,2.253 1.115,15.978 c 0.133,1.9 1.618,3.425 3.514,3.609 l 36.182,3.49 c 0.107,0.01 0.214,0.014 0.322,0.015 v 4.711 l 0.015,0.005 V 0 c 5.09692,6.4164715 9.92323,13.494208 13.621,19.449 -5.651,9.62 -12.575,18.217 -19.976,26.182 -6.864,-3.455 -13.531,-7.369 -19.828,-11.534 -3.151,3.132 -6.7,5.694 -10.186,8.372 -3.425,2.751 -7.285,4.768 -10.946,7.118 1.09,8.117 1.629,16.108 1.846,24.448 -9.446,4.754 -19.519,7.906 -29.708,10.17 -4.068,-6.837 -7.788,-14.241 -11.028,-21.479 -3.842,0.642 -7.702,0.88 -11.567,0.926 v 0.006 c -0.027,0 -0.052,-0.006 -0.075,-0.006 -0.024,0 -0.049,0.006 -0.073,0.006 V 63.652 C 93.903,63.606 90.046,63.368 86.203,62.726 82.965,69.964 79.247,77.368 75.173,84.205 64.989,81.941 54.915,78.789 45.47,74.035 45.686,65.695 46.225,57.704 47.318,49.587 43.65,47.237 39.795,45.22 36.369,42.469 32.888,39.791 29.333,37.229 26.181,34.097 19.884,38.262 13.219,42.176 6.353,45.631 -1.048,37.666 -7.968,29.069 -13.621,19.449 -9.1783421,12.475308 -4.4130298,5.4661124 0,0 Z"
           style="fill:#000000;fill-opacity:1;fill-rule:nonzero;stroke:none;stroke-width:0.884131"
           id="path84"
           inkscape:connector-curvature="0"
           sodipodi:nodetypes="cccccccccsssscccccccccccccccccccsccccccccccc"
           transform="matrix(1.5080713,0,0,-1.5080713,-96.339901,270.02201)"
           clip-path="url(#clipPath3536)" /><path
           d="m 149.78971,375.56995 -1.69055,24.22415 c -0.20359,2.91963 -2.52602,5.24356 -5.44564,5.45319 l -58.143692,4.1487 c -0.141759,0.0106 -0.283518,0.0151 -0.423768,0.0151 -2.889465,0 -5.382307,-2.12035 -5.809091,-5.02188 L 74.942623,381.77717 H 27.500208 l -3.334345,22.61202 c -0.447898,3.04329 -3.168458,5.2315 -6.232859,5.0068 l -58.143689,-4.1487 c -2.919626,-0.20963 -5.242056,-2.53356 -5.445645,-5.45319 l -1.690548,-24.22415 -49.083197,-4.73233 c 0.02262,5.27524 0.09048,11.05416 0.09048,12.20482 0,51.83845 65.759449,76.7548 147.46072,77.04133 h 0.09953 0.101041 C 133.02297,459.79724 198.7598,434.88089 198.7598,383.04244 c 0,-1.17177 0.0709,-6.92657 0.095,-12.20482 z"
           style="fill:#000000;fill-opacity:1;fill-rule:nonzero;stroke:none;stroke-width:1.33333"
           id="path88"
           inkscape:connector-curvature="0" /></g></g><path
       d="m 6.7372299,306.1655 c 0,18.17528 -14.7263162,32.89858 -32.8955589,32.89858 -18.160195,0 -32.891035,-14.7233 -32.891035,-32.89858 0,-18.16321 14.73084,-32.87897 32.891035,-32.87897 18.1692427,0 32.8955589,14.71576 32.8955589,32.87897"
       style="fill:#ffffff;fill-opacity:1;fill-rule:nonzero;stroke:none;stroke-width:1.33333"
       id="path92"
       inkscape:connector-curvature="0" /><path
       d="m 51.218695,342.05699 c -5.848301,0 -10.588169,-4.31007 -10.588169,-9.623 v -30.28358 c 0,-5.30841 4.739868,-9.62301 10.588169,-9.62301 5.848301,0 10.598725,4.3146 10.598725,9.62301 v 30.28358 c 0,5.31293 -4.750424,9.623 -10.598725,9.623"
       style="fill:#ffffff;fill-opacity:1;fill-rule:nonzero;stroke:none;stroke-width:1.33333"
       id="path100"
       inkscape:connector-curvature="0" /><path
       d="m 95.705601,306.1655 c 0,18.17528 14.726319,32.89858 32.898579,32.89858 18.15868,0 32.88802,-14.7233 32.88802,-32.89858 0,-18.16321 -14.72934,-32.87897 -32.88802,-32.87897 -18.17226,0 -32.898579,14.71576 -32.898579,32.87897"
       style="fill:#ffffff;fill-opacity:1;fill-rule:nonzero;stroke:none;stroke-width:1.33333"
       id="path104"
       inkscape:connector-curvature="0" /></g></svg>
